<?xml version="1.0" encoding="UTF-8" standalone="no"?>
<!-- Created with Inkscape (http://www.inkscape.org/) -->

<svg
   xmlns:dc="http://purl.org/dc/elements/1.1/"
   xmlns:cc="http://creativecommons.org/ns#"
   xmlns:rdf="http://www.w3.org/1999/02/22-rdf-syntax-ns#"
   xmlns:svg="http://www.w3.org/2000/svg"
   xmlns="http://www.w3.org/2000/svg"
   xmlns:xlink="http://www.w3.org/1999/xlink"
   xmlns:sodipodi="http://sodipodi.sourceforge.net/DTD/sodipodi-0.dtd"
   xmlns:inkscape="http://www.inkscape.org/namespaces/inkscape"
   width="90"
   height="90"
   id="svg2"
   version="1.1"
   inkscape:version="0.48.4 r9939"
   sodipodi:docname="double-shape.svg"
   inkscape:export-filename="C:\Users\Stephan\Desktop\double-shape.png"
   inkscape:export-xdpi="90"
   inkscape:export-ydpi="90">
  <defs
     id="defs4">
    <linearGradient
       id="linearGradient3789">
      <stop
         style="stop-color:#c20ac0;stop-opacity:1;"
         offset="0"
         id="stop3791" />
      <stop
         style="stop-color:#880886;stop-opacity:1;"
         offset="1"
         id="stop3793" />
    </linearGradient>
    <linearGradient
       inkscape:collect="always"
       xlink:href="#linearGradient3789"
       id="linearGradient3795"
       x1="20"
       y1="25"
       x2="70"
       y2="70"
       gradientUnits="userSpaceOnUse"
       spreadMethod="reflect" />
    <linearGradient
       gradientTransform="matrix(0.94993324,0,0,0.94993324,2.268499,17.781641)"
       id="linearGradient562"
       y1="13"
       x1="35.206882"
       y2="67.75"
       gradientUnits="userSpaceOnUse"
       x2="35.206882">
      <stop
         offset="0"
         style="stop-color:#FFFFFF"
         id="stop4638" />
      <stop
         offset="0.238"
         style="stop-color:#FBFBFB"
         id="stop4640" />
      <stop
         offset="0.4717"
         style="stop-color:#EFF0F0"
         id="stop4642" />
      <stop
         offset="0.7037"
         style="stop-color:#DCDDDE"
         id="stop4644" />
      <stop
         offset="0.9334"
         style="stop-color:#C0C3C5"
         id="stop4646" />
      <stop
         offset="0.9697"
         style="stop-color:#BBBEC0"
         id="stop4648" />
    </linearGradient>
    <linearGradient
       inkscape:collect="always"
       xlink:href="#linearGradient562"
       id="linearGradient4949"
       gradientUnits="userSpaceOnUse"
       gradientTransform="matrix(0.94993324,0,0,0.94993324,2.268499,17.781641)"
       x1="35.206882"
       y1="13"
       x2="35.206882"
       y2="67.75" />
  </defs>
  <sodipodi:namedview
     id="base"
     pagecolor="#ffffff"
     bordercolor="#666666"
     borderopacity="1.0"
     inkscape:pageopacity="0.0"
     inkscape:pageshadow="2"
     inkscape:zoom="2.8284271"
     inkscape:cx="-46.166786"
     inkscape:cy="95.741941"
     inkscape:document-units="px"
     inkscape:current-layer="layer2"
     showgrid="false"
     inkscape:window-width="1920"
     inkscape:window-height="1004"
     inkscape:window-x="0"
     inkscape:window-y="33"
     inkscape:window-maximized="1">
    <inkscape:grid
       type="xygrid"
       id="grid2985"
       empspacing="5"
       visible="true"
       enabled="true"
       snapvisiblegridlinesonly="true" />
  </sodipodi:namedview>
  <metadata
     id="metadata7">
    <rdf:RDF>
      <cc:Work
         rdf:about="">
        <dc:format>image/svg+xml</dc:format>
        <dc:type
           rdf:resource="http://purl.org/dc/dcmitype/StillImage" />
        <dc:title></dc:title>
      </cc:Work>
    </rdf:RDF>
  </metadata>
  <g
     inkscape:groupmode="layer"
     id="layer2"
     inkscape:label="Ebene"
     style="display:inline">
    <path
       style="fill:url(#linearGradient3795);fill-opacity:1;stroke:none"
       d="M 40,0 C 16.997925,3.8203999 4.1955587,17.670609 0,40 l 0,47 c -0.04316103,2.045634 0.83107571,3.180936 3,3 l 47,0 C 71.032736,86.458911 85.454444,74.494925 90,50 L 90,3 C 90.02226,0.94126854 88.967521,-0.00216547 87,0 z"
       id="path3768"
       inkscape:connector-curvature="0"
       sodipodi:nodetypes="ccccccccc" />
    <g
       style="display:inline"
       id="layer2-6"
       transform="matrix(1.1852632,0,0,1.1852632,-3.3736486,-20.959019)">
      <path
         style="opacity:0.25;fill:#000000;fill-opacity:1;stroke:none"
         id="path1381"
         d="m 20.112586,36.696056 c -2.264413,2.264423 -2.668438,5.530255 -0.907234,7.29146 1.00711,1.00711 2.502865,1.301266 4.024677,0.948299 0.715851,0.0532 1.435986,0.189882 1.870466,0.496549 0.894857,0.631668 0.612289,1.791375 0.470417,2.217676 -4.86173,4.518415 -11.469209,10.155024 -11.469209,10.155024 0,0 5.211182,6.182717 9.400872,10.715048 0.538137,0.122798 1.408048,0.180316 1.922731,-0.548824 0.301813,-0.427565 0.437805,-1.132216 0.492825,-1.836867 -0.371015,-1.538673 -0.08093,-3.055213 0.937091,-4.0732 1.761204,-1.761205 5.027027,-1.357188 7.29145,0.907234 2.264422,2.264413 2.668448,5.530245 0.907243,7.29145 -1.00711,1.00711 -2.502856,1.301266 -4.024677,0.948299 -0.715851,0.0532 -1.435995,0.189892 -1.870457,0.496549 -0.72915,0.514693 -0.6745,1.381716 -0.552566,1.918999 4.531276,4.187828 10.703847,9.389672 10.703847,9.389672 0,0 5.572062,-6.530126 10.076617,-11.383345 0.180297,-0.07296 1.627387,-0.619071 2.359548,0.418151 0.301823,0.427575 0.437825,1.132235 0.492816,1.836867 -0.370996,1.538702 -0.08084,3.055223 0.937109,4.073219 1.761205,1.761195 5.023295,1.353455 7.287727,-0.910967 2.264413,-2.264413 2.672162,-5.526522 0.910967,-7.287726 -1.00711,-1.007101 -2.502856,-1.301266 -4.024678,-0.9483 -0.71585,-0.0532 -1.435985,-0.189872 -1.870475,-0.496558 -1.037223,-0.732161 -0.494497,-2.175841 -0.421884,-2.355806 4.851983,-4.502636 11.372144,-10.065426 11.372144,-10.065426 0,0 -5.172795,-6.133073 -9.35232,-10.659049 -0.528904,-0.131699 -1.446008,-0.226113 -1.982483,0.533891 -0.306666,0.43448 -0.443333,1.154615 -0.496558,1.870475 0.352995,1.521793 0.0588,3.017577 -0.94828,4.024658 -1.761234,1.761234 -5.023323,1.353465 -7.287736,-0.910948 -2.264432,-2.264431 -2.672182,-5.526512 -0.910958,-7.287735 1.017977,-1.017977 2.534508,-1.308087 4.0732,-0.9371 0.704632,-0.055 1.409292,-0.190994 1.836867,-0.492816 0.760003,-0.536475 0.662711,-1.456466 0.530167,-1.986206 -4.527125,-4.181463 -10.670258,-9.36353 -10.670258,-9.36353 0,0 -5.645966,6.617577 -10.166233,11.480418 -0.427024,0.142585 -1.589732,0.428164 -2.2214,-0.466692 -0.301822,-0.427575 -0.437824,-1.132235 -0.492816,-1.836867 0.370987,-1.538702 0.08084,-3.055223 -0.937099,-4.073209 -1.761205,-1.761205 -5.027028,-1.357189 -7.29146,0.907233 z"
         inkscape:connector-curvature="0" />
      <g
         id="g1383">
        <path
           style="opacity:0.06666703;fill:#000000;fill-opacity:0.90196078;stroke:none"
           id="path1385"
           d="M 39.71875,36.21875 C 36.310644,39.149432 32.732319,47.757483 27.3125,43.75 c -2.797413,-1.574821 0.586516,-7.495643 -3.6875,-6.40625 -2.619845,0.247548 -4.625521,5.99385 -0.8125,5.125 5.167669,-1.062869 7.728062,6.655127 2.5625,8.75 -2.100548,3.188049 -10.404547,5.793333 -5.587426,9.373997 1.847826,1.773452 3.71595,5.862079 4.087426,1.438503 3.719372,-7.379784 15.280454,-1.944986 14.78125,5.40625 0.142122,3.338149 -2.73435,6.405589 -6.0625,6.40625 3.786918,4.191874 7.734604,7.507769 10.832304,0.655415 1.8411,-3.767569 8.015629,-8.488311 10.823946,-3.092915 0.798411,2.006913 -0.714327,6.524447 3.125,4.84375 2.947027,-0.764051 3.740252,-6.505404 -0.3125,-4.96875 -5.085162,0.432345 -6.52255,-7.044265 -1.78125,-8.9375 3.502118,-3.481528 10.669609,-6.59621 4.153897,-10.730332 -1.864384,-2.843305 -2.258322,-2.451487 -2.903897,0.324082 -4.333056,7.556412 -16.443421,0.705789 -14.53125,-7 0.42855,-2.867064 3.169728,-5.059398 5.96875,-5.0625 -2.599796,-1.181289 -6.173413,-8.386927 -8.25,-3.65625 z"
           inkscape:connector-curvature="0" />
        <path
           style="opacity:0.06666703;fill:#000000;fill-opacity:0.90196078;stroke:none"
           id="path1389"
           d="m 39.46875,36 c -3.388736,2.625178 -6.669555,11.291417 -11.875,7.46875 -2.718934,-1.574663 0.597104,-7.17723 -3.625,-6.5625 -2.955627,0.01888 -5.698479,6.112444 -1.5625,6 4.989898,-1.517768 7.876883,6.04232 2.71875,8.0625 -1.802093,3.083543 -10.253319,5.655085 -6.3125,9.09375 1.52308,0.737297 5.176056,7.936433 4.90625,3.5625 1.318282,-6.872485 11.404767,-5.635028 13.625,0.09375 2.756878,4.110877 -0.555745,10.560952 -5.6875,9.75 3.030757,1.547019 6.678383,9.053936 9.40625,4.28125 3.340631,-2.705318 6.6455,-11.21332 11.875,-7.53125 2.782773,1.680671 -0.613096,7.411868 3.90625,6.59375 2.914501,-0.196047 5.315618,-6.228434 1.3125,-5.96875 C 53.091325,72.307702 50.339802,64.698739 55.5,62.625 59.113634,59.047362 66.630813,55.693445 59.716397,51.394668 58.332363,50.0657 56.421775,46.490556 56.78125,50.125 55.437466,57.041796 45.225208,55.688262 43.125,49.875 39.881473,45.398975 44.758408,39.557806 48.6875,40.03125 45.807147,38.587719 41.71518,30.741019 39.46875,36 z"
           inkscape:connector-curvature="0" />
        <path
           style="opacity:0.06666703;fill:#000000;fill-opacity:0.90196078;stroke:none"
           id="path1393"
           d="m 39.1875,35.75 c -3.344353,2.433965 -6.158253,10.781896 -11.28125,7.5625 -2.260246,-2.109387 0.173132,-8.786294 -5.09375,-6.375 -3.550684,0.966343 -4.050036,7.77909 0.625,6.21875 4.373345,-0.435707 5.68384,6.054853 1.4375,7.53125 -1.899337,3.303945 -10.803395,5.92991 -6.3125,9.59375 1.320759,0.72196 5.516015,7.733035 5.4375,5.1875 -0.876477,-6.358687 7.995842,-8.281712 11.46875,-3.71875 4.664894,3.590531 2.185423,12.589451 -4.15625,11.3125 -0.121061,1.396394 5.744301,5.27961 7.771168,7.428799 3.96133,-3.175349 6.221734,-9.607505 11.291332,-10.835049 3.794439,-0.150924 3.491394,4.121143 3.78125,6.625 3.026533,4.071729 9.875022,-4.779676 4.5,-5.8125 -3.919433,1.581977 -7.887769,-3.8435 -4.081445,-6.494818 2.172679,-3.372556 10.375209,-6.170668 8.055995,-9.769294 -1.721418,-1.494463 -5.3049,-7.182592 -6.16205,-6.235888 1.189913,6.082933 -7.188465,8.691355 -10.875,4.5 C 40.600392,49.272078 42.160425,39.853685 48.75,40.59375 52.635547,41.620957 42.154322,34.818643 44.864726,36.183647 42.165126,34.192498 41.624143,31.377373 39.1875,35.75 z"
           inkscape:connector-curvature="0" />
        <path
           style="opacity:0.06666703;fill:#000000;fill-opacity:0.90196078;stroke:none"
           id="path1397"
           d="m 38.9375,35.53125 c -3.282989,2.232885 -6.006125,10.625799 -10.84375,7.4375 -2.344206,-1.848193 0.616282,-7.072322 -3.75,-6.84375 -4.133917,-0.394707 -7.208577,7.749842 -1.84375,7.5 4.364727,-1.396123 6.70329,5.186537 2.15625,6.8125 -1.865801,3.331733 -11.218946,6.048901 -6.583463,9.812944 1.89337,1.605794 4.52226,6.166995 6.302213,6.562056 -1.302443,-4.613692 3.587077,-9.05916 8,-6.71875 5.540139,1.537918 7.541827,11.201255 1.03125,12.5625 -1.201414,0.3538 -5.590878,-0.601653 -2.0625,1.5 3.164474,1.470944 6.982401,9.78465 9.819264,4.55477 3.486841,-2.251301 5.970366,-10.81148 11.149486,-8.11727 2.622598,1.958571 -0.51173,7.760146 4.375,6.96875 4.011524,0.0031 6.465558,-7.846045 1.375,-7.4375 -4.439327,1.346945 -6.664706,-5.307325 -2.09375,-6.96875 C 58.100509,59.858477 67.181053,56.960868 62.25,53.1875 60.283712,51.485391 58.019232,47.471242 56.15625,46.875 57.259757,51.200947 53.152492,55.706952 48.6875,53.84375 42.8385,52.66147 40.312158,42.506325 47.125,41.0625 48.401518,40.725564 52.599,41.745243 49.15625,39.5 45.762032,37.781163 41.755504,29.23488 38.9375,35.53125 z"
           inkscape:connector-curvature="0" />
        <path
           style="opacity:0.06666703;fill:#000000;fill-opacity:0.90196078;stroke:none"
           id="path1401"
           d="m 41.09375,32.46875 c -3.697752,3.324886 -6.204459,8.97306 -10.75,10.90625 -4.026971,0.185139 -2.243841,-4.536372 -3.5625,-6.6875 C 22.484448,32.416389 15.392404,42.761404 21.8125,44 c 3.188448,-1.474758 7.081072,2.78037 3.731596,5.113225 -3.045433,3.113721 -7.26894,6.012104 -9.762846,9.043025 2.910896,2.688354 5.639869,7.733848 8.78125,9.1875 -0.173473,-3.051324 0.716894,-7.461454 4.78125,-7.4375 6.356123,-0.858683 11.372838,9.68088 4.53125,12.28125 -1.541545,0.418758 -6.717223,-0.419998 -2.78125,2.21875 3.095829,1.165967 6.880005,9.696409 9.660759,5.276097 3.681023,-2.476003 5.468447,-9.567369 10.495491,-9.244847 3.89333,1.22323 -0.173391,7.592371 4.8125,7.5625 4.348098,0.548184 7.911716,-7.782014 2.5625,-8.25 -3.245622,1.468678 -6.894199,-2.98698 -3.550195,-5.244818 2.280058,-3.396419 9.684567,-6.21502 9.019918,-9.698071 C 61.371196,52.265138 59.000338,47.706275 56,46.375 c 0.08455,3.11822 -0.759997,7.46501 -4.84375,7.4375 -6.379534,0.882793 -11.427937,-9.868531 -4.375,-12.3125 1.66635,-0.285796 6.578492,0.359033 2.625,-2.25 -2.667355,-2.105571 -5.665523,-5.665969 -8.3125,-6.78125 z"
           inkscape:connector-curvature="0" />
        <path
           style="opacity:0.06666703;fill:#000000;fill-opacity:0.90196078;stroke:none"
           id="path1405"
           d="M 40.8125,32.25 C 37.412855,35.724663 34.613819,40.251388 30.71875,43 27.454098,43.527581 27.600178,39.657086 27.625,37.5625 c -1.633063,-4.340434 -8.278842,-1.257625 -8.6875,2.59375 -0.979289,3.061196 2.287965,4.919155 4.9375,4.125 3.269644,-6.95e-4 3.339815,4.773546 0.28125,5.625 -2.977521,2.704866 -6.000074,5.360477 -9.0625,7.96875 3.095942,3.181878 5.77996,7.587546 9.28125,9.96875 1.715406,-1.273285 -0.204241,-4.621461 1.75,-6.0625 5.161981,-5.263749 14.519591,4.153124 9.15625,9.25 -1.519556,1.974236 -4.930352,-0.13657 -6.03125,1.875 2.718411,3.343876 6.706133,6.067847 9.96875,9.09375 3.682273,-3.539367 6.461706,-8.655352 10.71875,-11.25 3.666082,-0.482366 2.610291,3.851897 3.25,6 3.504693,5.218579 12.193774,-3.631629 6.9375,-7.03125 -2.096123,-0.601615 -6.035052,0.433912 -6,-2.84375 1.029516,-3.656547 5.672544,-5.252997 7.96875,-8.15625 5.893215,-2.419905 0.779181,-5.686165 -1.660836,-8.690802 C 58.922388,49.387174 57.450953,44.629938 55.625,46.3125 55.474183,48.847982 55.539453,52.60716 52.21875,53.28125 46.526692,55.056317 40.395923,46.232413 45.6875,42.34375 47.178762,40.679716 50.993135,43.091344 51.25,40.5 48.130187,37.415656 44.613976,34.626031 41.3125,31.6875 L 40.837954,32.221364 40.8125,32.25 z"
           inkscape:connector-curvature="0" />
        <path
           style="opacity:0.06666703;fill:#000000;fill-opacity:0.90196078;stroke:none"
           id="path1409"
           d="m 40.5625,32 c -3.15306,3.550897 -6.148379,7.362079 -9.59375,10.5625 -2.393409,0.846224 -3.445502,-2.020423 -2.8125,-3.875 0.256818,-3.154333 -3.649011,-4.597065 -6.03125,-3.03125 -2.952175,1.342872 -5.177993,5.893201 -2.34375,8.375 1.772762,1.581642 4.916544,-0.489204 6.125,1.84375 0.970672,2.498895 -2.316367,3.574635 -3.557755,5.187671 -2.506067,2.332389 -5.1558,4.530902 -7.754745,6.781079 3.081705,3.475506 6.059361,7.269703 9.375,10.40625 2.302949,-0.05389 1.219885,-2.958534 1.5625,-4.4375 0.695656,-3.736516 5.854833,-4.014409 8.225502,-1.663799 2.979163,1.972857 4.067233,7.457317 0.368248,9.195049 -1.585424,0.960808 -4.316583,-0.706304 -5.21875,1.34375 -0.108186,1.625963 2.244237,2.208547 3.048338,3.442045 2.382502,2.191353 4.857631,4.267297 7.326662,6.370455 3.31584,-3.769368 6.532455,-7.80929 10.125,-11.25 2.227108,-1.016567 3.771403,1.653543 3.03125,3.53125 -0.4507,2.988018 3.101331,4.877655 5.59375,3.5 4.014408,-1.051959 6.126419,-8.448282 0.96875,-9.25 -1.624094,0.184807 -4.338214,0.342104 -4.5,-1.90625 -0.02964,-2.356566 2.874649,-3.249249 4.125,-4.90625 2.416574,-2.15065 4.851998,-4.244516 7.3125,-6.34375 -3.101216,-3.464656 -6.005025,-7.331899 -9.34375,-10.375 -1.996811,-0.115327 -1.604658,2.524214 -1.53125,3.84375 -0.07592,3.499169 -4.678674,4.787776 -7.319438,2.902781 C 44.521037,50.648273 42.391468,45.469045 45.625,42.84375 47.261755,41.14227 50.302535,43.127154 51.5625,41.25 51.990564,39.41621 49.388723,38.811123 48.555775,37.515247 46.126563,35.42116 43.709264,33.266104 41.25,31.1875 41.020833,31.458333 40.791667,31.729167 40.5625,32 z"
           inkscape:connector-curvature="0" />
        <path
           style="opacity:0.06666703;fill:#000000;fill-opacity:0.90196078;stroke:none"
           id="path1413"
           d="M 41.15625,30.625 C 37.832056,34.501479 34.467765,38.344755 31,42.09375 c -0.89246,0.348014 -2.139189,0.05246 -2.34375,-1 -0.32561,-0.846728 -0.1234,-1.707767 -0.0625,-2.575 0.0099,-1.655471 -1.030821,-3.283462 -2.657947,-3.715785 -2.41743,-0.725032 -5.012309,0.572314 -6.466962,2.493796 -1.375369,1.604677 -1.992341,4.186228 -0.850871,6.098944 0.830968,1.435027 2.665821,2.018918 4.266487,1.694538 0.773213,-0.08977 1.681455,0.0409 2.303043,0.534757 0.541574,0.521106 0.618506,1.573298 0.133715,2.135032 -3.710434,3.433189 -7.52782,6.748454 -11.352465,10.052468 3.085038,3.66214 6.313673,7.228207 9.46875,10.8125 0.974191,0.246727 2.183151,-0.14394 2.34375,-1.21875 0.390242,-0.846306 0.07726,-1.733376 0.08459,-2.605027 0.0052,-1.53766 0.861225,-2.980059 2.352083,-3.466769 1.879679,-0.739123 3.964962,0.106088 5.438331,1.321796 0.434427,0.299237 0.844819,0.809105 1.15625,1.28125 1.225391,1.578038 1.763983,3.97263 0.592102,5.717291 -0.913283,1.433657 -2.79381,1.865206 -4.373352,1.470209 -1.06194,0.03218 -2.505945,0.354197 -2.574903,1.630478 -0.08078,0.543302 -0.0016,1.066504 0.522048,1.332099 3.366346,3.057392 6.795216,6.043394 10.271605,8.974923 0.312252,0.01037 0.714451,-0.808951 1.0625,-1.09375 3.015018,-3.430896 6.001113,-6.888419 9.09375,-10.25 0.760108,-0.263357 1.773421,-0.348284 2.28125,0.40625 0.32149,0.612892 0.607154,1.576642 0.34375,2.34375 -0.314788,1.893935 0.728188,3.963985 2.626697,4.478285 2.051209,0.589625 4.277379,-0.255358 5.739506,-1.707352 1.793383,-1.620884 2.869472,-4.495161 1.633797,-6.770933 -0.81381,-1.531508 -2.77798,-2.176135 -4.451685,-1.791614 -0.982789,0.06749 -2.382319,-0.189888 -2.596005,-1.338275 -0.172534,-0.726066 0.115248,-1.489822 0.757864,-1.884362 C 59.28863,62.194382 62.924327,59.026197 66.59375,55.90625 63.450102,52.333289 60.401576,48.65098 57.125,45.1875 c -0.855454,-0.380667 -2.149888,0.0046 -2.351892,1.029415 -0.405589,0.904613 -0.178801,1.873081 -0.116858,2.814335 -0.05914,1.364263 -0.781636,2.655388 -2.040384,3.244911 -1.911371,0.922653 -4.288102,0.0562 -5.740866,-1.182411 -1.158571,-0.981227 -1.919658,-2.238116 -2.3125,-3.71875 -0.345881,-1.502727 0.09326,-3.225943 1.34375,-4.1875 0.630999,-0.435681 1.595243,-0.772056 2.46875,-0.71875 0.711781,0.02192 1.404758,0.266598 2.111899,0.02004 0.91055,-0.143751 1.689564,-0.824611 1.575601,-1.807535 0.128738,-0.623148 -0.337534,-0.928661 -0.758639,-1.287816 C 48.02118,36.352142 44.55361,33.503722 41.21875,30.53125 l -0.05547,0.0832 -0.007,0.01055 z"
           inkscape:connector-curvature="0" />
        <path
           style="opacity:0.06666703;fill:#000000;fill-opacity:0.90196078;stroke:none"
           id="path1417"
           d="m 40.9375,30.46875 c -3.465731,3.857782 -6.65239,7.948342 -10.34375,11.46875 -2.208274,0.418186 -1.91764,-2.447211 -1.78125,-3.8125 -0.09258,-3.583605 -4.736414,-4.78949 -7.342527,-2.918657 -3.260382,1.643213 -5.293932,6.827278 -2.063723,9.449907 1.64827,1.623782 4.404489,-0.270522 5.8125,1.46875 0.768081,2.005321 -2.191596,2.817977 -3.105421,4.19806 -2.772967,2.437423 -5.662699,4.992422 -8.519579,7.45819 3.230633,3.724605 6.405698,7.637919 9.84375,11.09375 2.342256,0.677743 3.278363,-2.123876 2.65625,-3.90625 -0.242961,-3.067678 3.534921,-4.605695 5.922016,-3.078065 3.019234,1.251797 5.375968,5.968379 2.421734,8.421815 -1.679961,1.55294 -5.069419,-0.548286 -6.15625,2 -0.67065,2.353696 2.519563,3.210883 3.65625,4.8125 2.420764,2.173978 4.943429,4.235671 7.40625,6.375 3.502145,-3.841844 6.824634,-8.098505 10.46875,-11.625 2.08956,-0.689504 2.279085,2.035358 1.9375,3.4375 -0.150471,3.460858 4.13466,5.107651 6.858449,3.48185 3.545069,-1.423517 5.978778,-6.955342 2.547801,-9.7006 -1.637746,-1.652101 -4.561431,0.353118 -5.875,-1.59375 -0.480472,-2.159426 2.47105,-2.964835 3.509267,-4.422032 2.693278,-2.417265 5.412826,-4.769848 8.146983,-7.140468 -3.30134,-3.701691 -6.325691,-7.801622 -9.96875,-11.09375 -2.451196,-0.588106 -3.081564,2.407435 -2.5625,4.1875 0.03924,3.255471 -4.185784,4.27541 -6.53125,2.5 -2.739315,-1.544372 -4.647957,-6.136392 -1.59375,-8.28125 1.812047,-1.26169 4.874009,0.638174 5.96875,-1.8125 0.614411,-2.394133 -2.51369,-3.275827 -3.6875,-4.90625 -2.476596,-2.070406 -4.902556,-4.249298 -7.375,-6.34375 l -0.237273,0.266932 -0.01273,0.01432 z"
           inkscape:connector-curvature="0" />
        <path
           style="opacity:0.06666703;fill:#000000;fill-opacity:0.90196078;stroke:none"
           id="path1421"
           d="m 40.6875,30.21875 c -3.549769,3.67687 -6.582092,8.473127 -10.59375,11.375 -2.140679,-0.912367 0.06384,-4.304335 -1.78125,-5.875 -4.607184,-5.33004 -13.954872,2.722882 -10,8.3125 1.403244,2.539071 4.710842,1.083132 6.625,2.25 -0.325962,2.87833 -4.462901,4.215258 -6.130157,6.502919 -2.120826,2.489939 -8.179457,4.623061 -3.440141,7.612983 2.940945,2.784521 5.129818,7.03972 8.601548,8.915348 3.696404,0.03138 1.821526,-4.41746 3.125,-6.4375 4.038641,-4.473788 12.029256,4.519805 6.40625,7.5625 -2.290907,0.01225 -6.581207,-0.008 -5.5625,3.53125 3.742268,3.434152 7.576851,6.76719 11.46875,10.03125 3.670814,-3.846699 6.826227,-8.761611 10.96875,-11.84375 2.338336,0.601575 0.03874,4.077918 1.71875,5.59375 4.076595,5.447791 13.264598,-1.353581 10.6875,-7.15625 -1.015187,-3.025793 -4.60853,-2.437239 -6.90625,-2.875 -1.250983,-2.39095 3.573323,-3.80172 4.540477,-5.632073 1.483304,-2.628272 8.740796,-4.74668 5.678273,-7.680427 -3.236454,-3.133902 -5.653512,-7.756034 -9.46875,-9.96875 -3.5616,-0.150109 -2.175402,4.105516 -3.03125,6.15625 -3.674657,4.892421 -11.985834,-3.632101 -6.9375,-7.125 2.094079,-0.75009 6.196367,0.547229 6.03125,-3 C 49.886147,36.266866 44.840078,33.321557 41.125,29.6875 l -0.4375,0.53125 z"
           inkscape:connector-curvature="0" />
        <path
           style="opacity:0.06666703;fill:#000000;fill-opacity:0.90196078;stroke:none"
           id="path1425"
           d="m 40.40625,30 c -3.594462,3.510264 -6.510662,8.603896 -10.46875,11.21875 -0.909502,-1.999619 0.197203,-5.7914 -2.8125,-6.96875 -6.376864,-3.567087 -14.210206,7.353161 -7.46875,11.375 1.28372,1.325242 4.987675,-0.700049 4.9375,1.5 -3.953352,3.584132 -7.91167,7.067875 -12,10.5625 3.962444,3.703108 6.772927,9.822866 11.625,11.96875 4.792198,-0.197047 0.453565,-7.487882 5.28125,-7.625 4.272011,-0.659631 8.223871,7.104142 3.09375,8.25 -2.982319,-1.391682 -7.293347,2.368946 -3.973509,4.823045 3.527243,3.231062 7.169844,6.298983 10.817259,9.395705 3.855403,-3.720117 6.963799,-9.482726 11.34375,-11.9375 0.238237,2.758873 0.331868,7.089849 4.25,7.46875 6.296957,1.476968 12.100077,-8.689542 5.65625,-12 -1.311234,-0.936573 -6.681701,0.527113 -3.953228,-2.178855 3.644397,-3.255738 7.419285,-6.605186 11.203228,-9.821145 -3.949307,-3.692435 -6.692931,-9.786418 -11.5625,-11.9375 -4.994507,0.07634 -0.407814,7.897879 -5.6875,7.59375 -4.405941,0.46257 -7.826957,-7.913087 -2.3125,-8.25 3.674987,1.613283 7.055037,-4.04086 2.46875,-5.78125 -3.335868,-2.148098 -7.153276,-8.08648 -10.395942,-7.705364 L 40.40625,30 z"
           inkscape:connector-curvature="0" />
        <path
           style="opacity:0.06666703;fill:#000000;fill-opacity:0.90196078;stroke:none"
           id="path1429"
           d="m 40.125,29.75 c -3.289291,3.289164 -6.794534,8.909245 -10.21875,10.875 0.95677,-4.011492 -2.369992,-8.579035 -6.8125,-7.1875 -6.340554,0.663591 -9.34768,11.697125 -1.96875,13 1.604759,0.03392 5.224493,-0.399467 1.59375,1.875 -3.482646,3.249416 -7.049143,6.202719 -10.625,9.34375 3.984323,3.976346 7.107882,9.753036 11.875,12.375 4.469977,0.123944 2.293924,-5.003202 4.0625,-7.125 4.06402,-2.917335 9.883736,5.803527 4.40625,7 -3.882176,-1.616416 -7.936447,3.949152 -3.302565,6.127909 3.380294,3.038583 6.810222,6.048835 10.333815,8.965841 3.686193,-3.775629 7.101757,-9.205355 11.15625,-12.03125 -0.705601,3.710174 1.788272,8.337374 6.1875,7.4375 6.502596,-0.07626 10.292529,-11.095629 3.0625,-13.03125 -1.694871,-0.164665 -5.988666,0.373358 -1.96875,-2.125 2.52864,-3.570381 10.314301,-6.490247 9.625,-10.28125 -3.835176,-3.457174 -6.386131,-9.398699 -11.15625,-11.25 -4.259514,0.0043 -2.180245,4.887152 -3.8125,7 -4.013077,3.222465 -10.069069,-5.823001 -4.46875,-6.90625 3.894049,1.653145 7.866307,-3.970896 3.303718,-6.160424 C 48.014666,34.611421 44.563051,31.625666 41.0625,28.6875 L 40.400878,29.437338 40.125,29.75 z"
           inkscape:connector-curvature="0" />
        <path
           style="opacity:0.06666703;fill:#000000;fill-opacity:0.90196078;stroke:none"
           id="path1433"
           d="m 39.875,29.53125 c -3.044545,3.017327 -7.22742,9.29196 -9.6875,10.21875 1.456155,-6.083872 -6.947893,-9.128333 -10.78125,-4.8125 -5.291254,3.224624 -3.273594,13.170694 3.53125,11.84375 0.956694,1.224511 -5.154474,4.908513 -6.877577,6.971005 -6.5819691,2.96423 -2.440114,6.732515 1.142051,10.40037 2.330517,2.586236 6.184962,9.121578 9.766776,4.722375 1.339533,-2.018449 -0.633133,-6.955574 3.5,-6.03125 3.168404,0.149841 5.950458,6.478673 1.59375,6.71875 -4.398611,-1.626601 -7.888949,5.078706 -2.875,7 3.369742,3.068627 6.85492,5.982119 10.3125,8.9375 3.498432,-3.579039 7.727055,-9.813821 10.9375,-11.78125 -1.650988,5.771985 6.139264,9.486769 10.25,5.5 5.02022,-2.773543 4.713018,-12.174722 -1.75,-12.3125 -3.932183,0.773743 -0.441271,-1.687825 1.125,-3.0625 2.032197,-3.436645 11.506536,-6.258511 6.84375,-10.125 C 63.215858,50.607773 61.016558,44.31851 56.09375,43.375 51.912653,43.55391 53.711437,48.381918 52.25,50.5 c -4.011,2.964086 -9.261147,-6.629601 -3.375,-6.28125 4.354432,1.294839 7.156861,-5.37052 2.4375,-7.125 -3.590875,-2.406633 -7.465512,-8.159125 -10.933492,-8.148239 L 39.875,29.53125 z"
           inkscape:connector-curvature="0" />
        <path
           style="opacity:0.06666703;fill:#000000;fill-opacity:0.90196078;stroke:none"
           id="path1437"
           d="m 39.59375,29.28125 c -2.735581,2.829761 -6.963754,8.820537 -8.9375,9.5625 0.499802,-6.45553 -8.527084,-8.291213 -12.09375,-3.625 -4.795027,3.66153 -2.483657,12.918466 4.0625,11.96875 -2.793012,3.202456 -7.78374,6.99123 -11.53125,10.375 4.312063,4.24579 7.537928,10.650255 12.875,13.1875 4.70024,0.320278 3.264533,-5.002093 4.59375,-7.34375 3.061203,-1.914752 7.927986,4.544293 3.875,5.78125 -4.754925,-1.786534 -8.980995,5.268771 -3.5,7.625 3.467465,3.1713 7.039922,6.158751 10.625,9.1875 3.238921,-3.351533 7.843665,-9.885358 10.375,-11.25 -0.647288,6.509462 8.460109,8.524673 12.09375,3.78125 4.90195,-3.792287 2.271994,-13.194551 -4.375,-11.9375 3.487938,-3.506055 7.874266,-6.981944 11.78125,-10.4375 C 65.129633,51.928072 62.025527,45.551763 56.625,43 c -4.1894,-0.339847 -4.003423,4.40967 -4.40625,7.0625 -2.976441,2.877266 -8.590436,-4.914633 -3.84375,-5.53125 4.748428,1.688073 8.474074,-5.495809 3.1875,-7.6875 -3.466138,-3.107181 -7.017917,-6.152013 -10.59375,-9.15625 -0.458333,0.53125 -0.916667,1.0625 -1.375,1.59375 z"
           inkscape:connector-curvature="0" />
        <path
           style="opacity:0.06666703;fill:#000000;fill-opacity:0.90196078;stroke:none"
           id="path1441"
           d="M 39.3125,29.0625 C 36.749228,31.848746 33.300063,36.506632 31,38.15625 30.907778,31.860403 21.858494,30.278288 18.28125,35 c -4.659939,3.706773 -2.87938,12.804017 3.65625,12.59375 -3.750855,3.410783 -7.538428,6.674279 -11.34375,9.9375 4.48296,4.322546 7.762267,11.187405 13.375,13.5625 4.004764,0.25959 4.634984,-4.172265 4.5,-7.09375 2.603324,-2.662865 7.792125,4.452458 3.53125,4.84375 -5.015398,-1.655992 -8.772652,6.019758 -3.28125,8.25 3.539725,3.243311 7.226387,6.31867 10.875,9.4375 3.215242,-3.649817 6.941316,-8.328654 10,-11.21875 -0.100779,7.04044 9.948904,8.099405 13.3125,2.78125 4.378648,-4.150404 1.213638,-12.225993 -4.25,-12.0625 3.766731,-3.353948 7.49269,-6.637138 11.3125,-9.84375 C 65.434897,51.931015 62.349532,45.049281 56.625,42.65625 c -4.326345,-0.429868 -4.443832,4.505093 -4.75,7.25 -2.829534,2.20733 -7.55316,-4.95718 -3.21875,-5 5.023368,1.547683 8.502411,-6.107145 3.125,-8.34375 -3.600574,-3.235794 -7.191346,-6.246443 -10.84375,-9.40625 -0.541667,0.635417 -1.083333,1.270833 -1.625,1.90625 z"
           inkscape:connector-curvature="0" />
      </g>
      <path
         style="fill:url(#linearGradient4949);fill-opacity:1;stroke:none"
         id="path4262"
         d="m 20.112586,35.625728 c -2.264413,2.264423 -2.668438,5.530255 -0.907234,7.29146 1.00711,1.00711 2.502865,1.301266 4.024677,0.948299 0.715851,0.0532 1.435986,0.189882 1.870466,0.496549 0.894857,0.631668 0.612289,1.791375 0.470417,2.217676 -4.86173,4.518415 -11.469209,10.155024 -11.469209,10.155024 0,0 5.211182,6.182717 9.400872,10.715048 0.538137,0.122798 1.408048,0.180316 1.922731,-0.548824 0.301813,-0.427565 0.437805,-1.132216 0.492825,-1.836867 -0.371015,-1.538673 -0.08093,-3.055213 0.937091,-4.0732 1.761204,-1.761205 5.027027,-1.357188 7.29145,0.907234 2.264422,2.264413 2.668448,5.530245 0.907243,7.29145 -1.00711,1.00711 -2.502856,1.301266 -4.024677,0.948299 -0.715851,0.0532 -1.435995,0.189892 -1.870457,0.496549 -0.72915,0.514693 -0.6745,1.381716 -0.552566,1.918999 4.531276,4.187828 10.703847,9.389672 10.703847,9.389672 0,0 5.572062,-6.530126 10.076617,-11.383345 0.180297,-0.07296 1.627387,-0.619071 2.359548,0.418151 0.301823,0.427575 0.437825,1.132235 0.492816,1.836867 -0.370996,1.538702 -0.08084,3.055223 0.937109,4.073219 1.761205,1.761195 5.023295,1.353455 7.287727,-0.910967 2.264413,-2.264413 2.672162,-5.526522 0.910967,-7.287726 -1.00711,-1.007101 -2.502856,-1.301266 -4.024678,-0.9483 -0.71585,-0.0532 -1.435985,-0.189872 -1.870475,-0.496558 -1.037223,-0.732161 -0.494497,-2.175841 -0.421884,-2.355806 4.851983,-4.502636 11.372144,-10.065426 11.372144,-10.065426 0,0 -5.172795,-6.133073 -9.35232,-10.659049 -0.528904,-0.131699 -1.446008,-0.226113 -1.982483,0.533891 -0.306666,0.43448 -0.443333,1.154615 -0.496558,1.870475 0.352995,1.521793 0.0588,3.017577 -0.94828,4.024658 -1.761234,1.761234 -5.023323,1.353465 -7.287736,-0.910948 -2.264432,-2.264431 -2.672182,-5.526512 -0.910958,-7.287735 1.017977,-1.017977 2.534508,-1.308087 4.0732,-0.9371 0.704632,-0.055 1.409292,-0.190994 1.836867,-0.492816 0.760003,-0.536475 0.662711,-1.456466 0.530167,-1.986206 -4.527125,-4.181463 -10.670258,-9.36353 -10.670258,-9.36353 0,0 -5.645966,6.617577 -10.166233,11.480418 -0.427024,0.142585 -1.589732,0.428164 -2.2214,-0.466692 -0.301822,-0.427575 -0.437824,-1.132235 -0.492816,-1.836867 0.370987,-1.538702 0.08084,-3.055223 -0.937099,-4.073209 -1.761205,-1.761205 -5.027028,-1.357189 -7.29146,0.907233 z"
         inkscape:connector-curvature="0" />
      <path
         style="opacity:0.75;fill:#ffffff;fill-opacity:1;stroke:none"
         id="path1445"
         d="m 41.21875,29.625 c 0,0 -5.635983,6.605909 -10.15625,11.46875 -0.427024,0.142585 -1.587082,0.426106 -2.21875,-0.46875 -0.150911,-0.213787 -0.265148,-0.494809 -0.34375,-0.8125 -0.01783,0.325055 -0.07623,0.63685 -0.15625,0.96875 0.05499,0.704632 0.198178,1.416175 0.5,1.84375 0.631668,0.894856 1.791726,0.611335 2.21875,0.46875 C 35.582767,38.230909 41.21875,31.625 41.21875,31.625 c 0,0 5.908501,4.957867 10.40625,9.09375 0.456504,-0.540281 0.394906,-1.295748 0.28125,-1.75 C 47.379125,34.787287 41.21875,29.625 41.21875,29.625 z m -16.3125,4 c -1.585788,-0.112596 -3.36598,0.584736 -4.78125,2 -1.626511,1.626518 -2.312426,3.768873 -1.90625,5.5 0.228179,-1.214857 0.870592,-2.464338 1.90625,-3.5 2.264432,-2.264422 5.520045,-2.667455 7.28125,-0.90625 0.492215,0.492238 0.809331,1.109741 0.96875,1.78125 0.270945,-1.439108 -0.01386,-2.826315 -0.96875,-3.78125 -0.660452,-0.660452 -1.548527,-1.026192 -2.5,-1.09375 z m 31.1875,10.46875 c -0.362448,0.05494 -0.731763,0.213748 -1,0.59375 -0.306666,0.43448 -0.446775,1.15914 -0.5,1.875 0.07614,0.328253 0.140991,0.647561 0.15625,0.96875 0.07915,-0.323826 0.190417,-0.62651 0.34375,-0.84375 0.536475,-0.760004 1.439846,-0.662949 1.96875,-0.53125 3.51204,3.803163 7.11879,8.019792 8.375,9.5 0.19592,-0.167913 1,-0.84375 1,-0.84375 0,0 -5.19547,-6.130274 -9.375,-10.65625 -0.264452,-0.06585 -0.606302,-0.117435 -0.96875,-0.0625 z m -11.625,2.09375 c -0.405099,1.730043 0.279725,3.873476 1.90625,5.5 2.264413,2.264413 5.520016,2.667484 7.28125,0.90625 0.958314,-0.958315 1.244862,-2.367827 0.96875,-3.8125 -0.155309,0.690055 -0.46521,1.30896 -0.96875,1.8125 -1.761234,1.761234 -5.016837,1.358163 -7.28125,-0.90625 -1.035666,-1.035666 -1.677224,-2.285992 -1.90625,-3.5 z M 25.4375,46.71875 C 20.588306,51.217062 14.09375,56.75 14.09375,56.75 c 0,0 0.736523,0.882419 0.96875,1.15625 1.322426,-1.133108 6.240816,-5.354082 10.5,-9.3125 0.118227,-0.355251 0.324164,-1.231133 -0.125,-1.875 z m 0.4375,18.125 c -0.08468,0.38573 -0.144743,0.772118 -0.125,1.1875 0.07054,-0.302614 0.13037,-0.637298 0.15625,-0.96875 -0.01797,-0.07451 -0.01639,-0.1444 -0.03125,-0.21875 z m 29.21875,2 c -0.0104,0.0096 -0.02086,0.02161 -0.03125,0.03125 -0.07261,0.179965 -0.630973,1.642839 0.40625,2.375 0.43449,0.306686 1.15915,0.4468 1.875,0.5 1.521822,-0.352966 3.02414,-0.0696 4.03125,0.9375 0.50561,0.505615 0.81327,1.149851 0.96875,1.84375 0.28789,-1.457197 -0.0025,-2.877485 -0.96875,-3.84375 -1.00711,-1.007101 -2.509428,-1.290466 -4.03125,-0.9375 -0.71585,-0.0532 -1.44051,-0.193314 -1.875,-0.5 -0.166815,-0.117752 -0.28139,-0.259907 -0.375,-0.40625 z M 36.03125,67.375 c -0.157019,0.689439 -0.466142,1.309892 -0.96875,1.8125 -1.00711,1.00711 -2.509429,1.290467 -4.03125,0.9375 -0.715851,0.0532 -1.440538,0.193343 -1.875,0.5 -0.72915,0.514693 -0.684434,1.400217 -0.5625,1.9375 0.09872,0.09124 0.212304,0.189115 0.3125,0.28125 0.06805,-0.07402 0.158856,-0.154413 0.25,-0.21875 0.434462,-0.306657 1.159149,-0.4468 1.875,-0.5 1.521821,0.352967 3.02414,0.06961 4.03125,-0.9375 0.959508,-0.959508 1.24527,-2.365051 0.96875,-3.8125 z m 16.0625,6.46875 c -0.01983,0.415726 0.009,0.801468 0.09375,1.1875 0.01506,-0.07564 0.04422,-0.142946 0.0625,-0.21875 -0.02587,-0.331443 -0.08571,-0.666135 -0.15625,-0.96875 z"
         inkscape:connector-curvature="0" />
      <path
         style="opacity:0.25;fill:#000000;fill-opacity:1;stroke:none"
         id="path1456"
         d="m 28.375,20.5 c -0.01789,0.09502 -0.0083,0.185948 -0.03125,0.28125 0.02587,0.331443 0.08571,0.666135 0.15625,0.96875 0.01841,-0.431548 -0.03037,-0.85138 -0.125,-1.25 z m 23.25,2.21875 c -0.07586,0.08978 -0.1417,0.173552 -0.25,0.25 -0.427575,0.301822 -1.139118,0.445 -1.84375,0.5 -1.538692,-0.370987 -3.075773,-0.08048 -4.09375,0.9375 -0.955706,0.955706 -1.240477,2.340891 -0.96875,3.78125 0.158876,-0.678506 0.4726,-1.285101 0.96875,-1.78125 1.017977,-1.017977 2.555058,-1.308487 4.09375,-0.9375 0.704632,-0.055 1.416175,-0.198178 1.84375,-0.5 0.760003,-0.536475 0.663794,-1.47026 0.53125,-2 -0.08828,-0.08154 -0.191802,-0.167749 -0.28125,-0.25 z M 18.21875,23.125 c -0.270723,1.441366 0.04431,2.825554 1,3.78125 1.00711,1.00711 2.478188,1.321717 4,0.96875 0.715851,0.0532 1.44052,0.193333 1.875,0.5 0.149143,0.105278 0.253917,0.214977 0.34375,0.34375 0.04169,-0.03868 0.08356,-0.08648 0.125,-0.125 0.141872,-0.426301 0.426107,-1.587082 -0.46875,-2.21875 -0.43448,-0.306667 -1.159149,-0.4468 -1.875,-0.5 -1.521812,0.352967 -2.99289,0.03836 -4,-0.96875 -0.496144,-0.496144 -0.840702,-1.102319 -1,-1.78125 z M 54.75,29.59375 c -0.07097,0.308442 -0.131214,0.632026 -0.15625,0.96875 0.01709,0.07369 0.0172,0.145234 0.03125,0.21875 0.08405,-0.373429 0.139227,-0.785553 0.125,-1.1875 z m 10.6875,8.0625 c -1.337,1.145858 -6.143148,5.291595 -10.375,9.21875 -0.06094,0.151022 -0.457189,1.205158 0.03125,1.96875 C 59.942435,44.346255 66.4375,38.8125 66.4375,38.8125 c 0,0 -0.76125,-0.874928 -1,-1.15625 z m -50.375,2.25 C 14.875417,40.066551 14.09375,40.75 14.09375,40.75 c 0,0 5.21656,6.155169 9.40625,10.6875 0.538137,0.122798 1.422817,0.19789 1.9375,-0.53125 0.301813,-0.427565 0.41373,-1.139099 0.46875,-1.84375 -0.0831,-0.344621 -0.14023,-0.694203 -0.15625,-1.03125 -0.07943,0.34073 -0.152653,0.648552 -0.3125,0.875 -0.514683,0.72914 -1.399363,0.654048 -1.9375,0.53125 -3.532735,-3.821649 -7.188715,-8.05874 -8.4375,-9.53125 z m 14.28125,2 c -0.951472,0.06756 -1.839548,0.433298 -2.5,1.09375 -0.968725,0.968693 -1.260725,2.382688 -0.96875,3.84375 0.153397,-0.698718 0.45974,-1.334756 0.96875,-1.84375 1.761204,-1.761205 5.048077,-1.358172 7.3125,0.90625 1.03076,1.030756 1.643959,2.259364 1.875,3.46875 0.393196,-1.726446 -0.256793,-3.850549 -1.875,-5.46875 -1.415264,-1.415264 -3.226713,-2.112596 -4.8125,-2 z M 50.375,52.34375 c -0.47583,0.01599 -0.909852,0.18227 -1,0.21875 -4.504555,4.853219 -10.0625,11.375 -10.0625,11.375 0,0 -5.907364,-4.956824 -10.40625,-9.09375 -0.476346,0.518103 -0.419192,1.248627 -0.3125,1.71875 4.531276,4.187828 10.71875,9.375 10.71875,9.375 0,0 5.557945,-6.521781 10.0625,-11.375 0.180297,-0.07296 1.642839,-0.630972 2.375,0.40625 0.150911,0.213788 0.265148,0.494809 0.34375,0.8125 0.01886,-0.317685 0.07811,-0.644645 0.15625,-0.96875 -0.05499,-0.704632 -0.198177,-1.416175 -0.5,-1.84375 -0.366081,-0.518611 -0.89917,-0.640995 -1.375,-0.625 z m 11.96875,2.1875 c -0.236847,1.198826 -0.852931,2.415431 -1.875,3.4375 -2.264432,2.264422 -5.520045,2.667445 -7.28125,0.90625 -0.502086,-0.502109 -0.844031,-1.124989 -1,-1.8125 -0.280303,1.448971 0.03894,2.851392 1,3.8125 1.761205,1.761195 5.016818,1.358172 7.28125,-0.90625 1.614334,-1.614334 2.261107,-3.714349 1.875,-5.4375 z"
         transform="translate(0,16)"
         inkscape:connector-curvature="0" />
    </g>
  </g>
</svg>
